<svg xmlns="http://www.w3.org/2000/svg" viewBox="0 0 683.9 585.71"><defs><style>.cls-1{fill:#fff;}.cls-2{fill:none;}</style></defs><title>Asset 2</title><g id="Layer_2" data-name="Layer 2"><g id="Layer_1-2" data-name="Layer 1"><g id="_477886400" data-name=" 477886400"><path id="_485072296" data-name=" 485072296" class="cls-1" d="M82.54,62.53C86.79,57.74,93,53.59,100.81,50,60.41,90,70,206.42,104.61,318.52c-3,12.13-9.22,35.79-14,53.6C48.24,252.76,34,117.27,82.54,62.53ZM150.92,435a518.5,518.5,0,0,0,27.82,49l-30.25,10.65a542.64,542.64,0,0,1-28.76-52.45c9.19-.12,22.54-1.4,31.19-7.19Zm76.66,107.25c14.42,12.21,29.1,20.18,43.68,22.64,47.82,8.07,146.43-36.29,227-105.13q-2.62,2.5-5.27,5C409.83,542,300.42,593.41,249.23,584.77c-18.07-3.05-36.37-14.12-54.16-31.08l32.52-11.45Z"/><path id="_469266576" data-name=" 469266576" class="cls-1" d="M108.12,42C171.21-40.68,637.36,1.79,679.6,142.13,700.45,211.4,643.25,318.2,555.34,413c-62.09,66.93-142,118.73-198.83,135.12,50.27-20.47,109-57.3,158.49-103.26C608,358.41,671.2,242.3,649.21,169.55,608.1,33.56,181.08-11.24,105.37,46c.89-1.37,1.79-2.72,2.75-4Z"/></g><line class="cls-2" x1="158.3" y1="175.27" x2="158.31" y2="175.26"/><path class="cls-1" d="M406.1,270a20.44,20.44,0,0,1-15.54-1.31,18.76,18.76,0,0,1-7.64-26.3,21.58,21.58,0,0,1,27.83-8.09,18.52,18.52,0,0,1,7.65,26.3A20.55,20.55,0,0,1,406.1,270Z"/><path class="cls-1" d="M152.85,95.63q0-5.08,4.8-8.65A20.75,20.75,0,0,1,181,87q4.81,3.58,4.8,8.65V100h-11V95.63a3.94,3.94,0,0,0-1.59-3.15,6.42,6.42,0,0,0-7.74,0,3.93,3.93,0,0,0-1.59,3.15v33.23a3.93,3.93,0,0,0,1.59,3.15,6.42,6.42,0,0,0,7.74,0,3.93,3.93,0,0,0,1.59-3.15v-4.39h11v4.39q0,5.08-4.8,8.65a20.75,20.75,0,0,1-23.3,0q-4.81-3.58-4.8-8.65V95.63ZM208.78,84.5h11v44.37a3.94,3.94,0,0,0,1.59,3.15,6.42,6.42,0,0,0,7.74,0,3.94,3.94,0,0,0,1.59-3.15V84.5h11v44.37q0,5.08-4.81,8.65a20.75,20.75,0,0,1-23.3,0q-4.81-3.58-4.8-8.65Zm72.38,20A18.94,18.94,0,0,1,292.81,108q4.81,3.58,4.81,8.65v12.17q0,5.08-4.81,8.65a20.75,20.75,0,0,1-23.3,0q-4.81-3.58-4.81-8.65v-4.39h11v4.39a3.93,3.93,0,0,0,1.59,3.15,6.42,6.42,0,0,0,7.74,0,3.94,3.94,0,0,0,1.58-3.15V116.69a3.94,3.94,0,0,0-1.58-3.15,5.93,5.93,0,0,0-3.87-1.3,19,19,0,0,1-11.65-3.58q-4.81-3.58-4.81-8.65V95.63q0-5.08,4.81-8.65a20.75,20.75,0,0,1,23.3,0q4.81,3.58,4.81,8.65V100h-11V95.63A3.94,3.94,0,0,0,285,92.49a6.42,6.42,0,0,0-7.74,0,3.94,3.94,0,0,0-1.59,3.15V100a3.94,3.94,0,0,0,1.59,3.15,5.91,5.91,0,0,0,3.87,1.3Zm66.92-20v7.79h-8.23V140h-11V92.29h-8.23V84.5Zm23,11.13q0-5.08,4.81-8.65a20.75,20.75,0,0,1,23.3,0q4.81,3.58,4.8,8.65v33.23q0,5.08-4.8,8.65a20.75,20.75,0,0,1-23.3,0q-4.81-3.58-4.81-8.65Zm11,0v33.23a3.93,3.93,0,0,0,1.59,3.15,6.42,6.42,0,0,0,7.74,0,3.93,3.93,0,0,0,1.59-3.15V95.63a3.94,3.94,0,0,0-1.59-3.15,6.42,6.42,0,0,0-7.74,0A3.93,3.93,0,0,0,382.1,95.63ZM470.85,140h-11V107.29L448.94,118l-11-10.73V140H427V83.4l21.91,21.41L470.85,83.4Z"/><polygon class="cls-1" points="120.05 112.25 130.41 101.88 140.78 112.25 130.41 122.62 120.05 112.25"/><polygon class="cls-1" points="482.92 112.25 493.29 101.88 503.66 112.25 493.29 122.62 482.92 112.25"/><path class="cls-1" d="M601.36,309.29l0-.08s0-.07-.05-.11a13.52,13.52,0,0,0-8.67-8.76c-8.49-2.83-22.18-2.52-31.87,19.73a54.24,54.24,0,0,1-6.72-9c-10.23-16.89-17.27-46.29-17.57-79-.08-8.37.09-16.64.44-24.62,13.73-1.91,25.43-3.87,34.2-5.92,10.26-2.4,15.57-9.44,16.52-14.89,2.65-15.17-23.23-17.45-23.76-12.87-.23,2,7.36.19,7.87,6.54.43,5.31-10.63,6.69-23.36,8.39q-5.12.69-10.44,1.32c2.4-32,7-56.42,7.86-59.4,3.29-10.83-5.39-23.55-17.87-22.93C500.2,109.07,497,155.42,499.17,194c-51.27,4.54-109.71,7.67-162.49,13.85,2.08-16.55,4.08-28.09,4.61-29.86,3.29-10.83-5.39-23.55-17.88-22.93-20.06,1-27.44,28-29.28,58.77a410,410,0,0,0-51,11.57c-21,6.44-32.86,18.26-35,30.23-6.9,38,73,42.51,58.27,33-11.76-7.6-29.34-23.68-7.22-38.89,6.22-4.28,18.43-8.11,34.58-11.6A548.29,548.29,0,0,0,299.28,304c3.85,23.08,9.11,47.73,20.4,68.5-1,4.21-2.06,8.4-3.38,12.63-2.6,8.31-8.72,24.3-15,23.54-9.35-1.13-14.65-33.06-14.91-36.69-1.29-17.82.61-36.07,7.43-49a20.16,20.16,0,0,0,.07-18.15c-8-15.93-20.59-9.33-29.74-2-10.65,8.58-21.95,17.15-35.32,19.34-1.12-9.47-4.49-20.78-12.88-25.64-19.06-11-39.83,17.46-21.15,41.7,6.33,8.21,13.81,12.18,22.26,14.8,2.36.73,4.3,1.23,5.94,1.56,1.9,29-.94,65.37-9.19,67.75-8,2.32-12.18-6.87-16.9-19.09-8-20.64-15.47-59.65-19.56-94.65-2.39-20.47-14.39-111.18,5.47-133.92,2.33-2.67,5.31-4.06,8.93-3.14,4.13,1,5.94,5.45,7.86,3.3,4-4.49-4.24-17.66-18.75-15.45-9.46,1.44-16.83,7.2-22.53,15.75h0a67.85,67.85,0,0,0-5.68,10.63l-28.25,52.86c-2.84,17.13-17.27,107.58-39.24,168.58-25.64-10-63.63-24.78-77.17.28C-.23,422.76-1.2,444.41,1,457.95,6.9,493.16,44.67,525.84,71.56,494c10.12-12,20.34-33.27,30.07-59.58,23.73,4.18,44.27,3,51.33-8.67,8.33-13.76-.41-27.81-6.33-25.68-2.84,1,.49,4.76-.31,9.4a9.56,9.56,0,0,1-6.79,7.7c-6.21,2.15-17.59.56-30.81-3,12.62-38.08,22.85-89.38,31.76-131.19.42,12.71,1.32,23.75,2.24,31.38,3,25.31,13,92,39.46,121,13,14.31,24.29,19.19,33.8,17.06,23.85-5.33,23.41-57.37,17.52-97.33h0a68.05,68.05,0,0,0,28.33-6.9,175.54,175.54,0,0,0,10.07,45.95c5.2,14.41,14.68,35.55,30.17,33.14,12.23-1.9,21.81-25.5,24.34-36.65l1.25-5.52c11,14.87,26.91,27,47.66,20.91,6.8-2,13.21-5.14,18.05-10.45a50.83,50.83,0,0,0,5.49-6.66c5.62,4.73,12.67,6.65,21.48,4.16,15.66-4.41,21.45-15.56,23.51-29,9.26,11.31,24.06,15.25,39.74,10.61,18.55-5.5,34-22.58,35.69-39.21,2.9-7.55,5.21-13.93,7.28-20.06,6.45,11.17,15.46,22.37,27.16,28.16-4.31,21.32-.23,29.38-2.92,37.44-3.2,9.59-9.46,14.05-9.46,14.05s16.24-10.18,16.24-23c0-5.36,1.62-15.32,4.2-25.56a38.7,38.7,0,0,0,18.95-.21c12.89-3.25,20.42-15.08,21.45-26.89A22.49,22.49,0,0,0,601.36,309.29Zm-399.1,4.94c-1.15-2.72.44-5.63,2.12-7.14,5.27-4.74,10.38-3.75,13.3,2.17,1.89,3.85,2.64,9.58,3.14,13.8C216.37,323,204.84,320.32,202.26,314.23Zm-157,175c-36.59-5.88-41.51-88.8,32.52-59.93C69.32,469.79,53.66,490.62,45.25,489.27ZM449.2,345.93a41.83,41.83,0,0,1-3.66-16.19h0c.61-13.18,25.21-17.32,15.48,4.38-3.57,8,14,12.57,13.82-8.17-.1-14.87-16.3-20.07-28.19-14.39h0c.31-2.2.65-4.34,1-6.37,1.94-10.62,4.35-21.42,6.56-32a85.32,85.32,0,0,0,13.46,26.45c8.83,11.88,19.58,18,23.51,33.67C497,356.66,461.65,371.67,449.2,345.93Zm68-27.84c-2.75-13.27-8.29-15.76-14.7-23.34-6.07-7.17-10.54-14.92-12.5-24-3-14,3.17-19,1.82-26.72-2.14-12.26-17.6-19.23-29.47-12.36-11.07,6.41-10.59,17.91-13,28.63-4.2,18.91-13.77,45.18-15.37,67.37v.06c-2.07,16.5.54,39.16-13.27,42.76-20.67,5.39-10-63.5-8.43-73.65,1.69-11.11-2-18.36-14.35-19.39-35.61-3-18.35,74.08-10.36,94.7-4.32,6.93-10,12.68-17.07,13.45-20.81,3.5-39-40.82-39.46-93.79a595.13,595.13,0,0,1,3-60.73c50.11-7.34,114.83-13.18,166.45-19.07,1.55,16,3.56,28.58,4.13,32.37,3.39,20.32,7.87,41.86,16.6,60.9Zm51.16,8.13c2.49-5.87,5.23-10.45,8-12.3,9.49-6.33,18.72.62,12.95,7.93C583.1,329.45,575.58,330.24,568.37,326.22Z"/><path class="cls-1" d="M449.68,395.48l-9.28,3.23,6.71,19.07a9.24,9.24,0,0,1,8,3.5l-6.56-18.64,2.2-.77,48.95,0a24.13,24.13,0,0,0,4.85,11.86l-38.63,31-2.26.81-6.61-18.77a9.24,9.24,0,0,1-4.05,7.75l6.76,19.2,9.32-3.33,68.42-55Z"/><path class="cls-1" d="M462.59,421.74h0a15.61,15.61,0,0,0-19.86-9.51L131.52,521.82q.62,3.14,1.49,6.26L444.86,418.26a9,9,0,0,1,.91-.27,9.2,9.2,0,0,1,10.79,5.87h0a9.2,9.2,0,0,1-5.61,11.7l-64.35,22.66-247.07,87q1.38,2.88,2.92,5.75L453.08,441.6A15.61,15.61,0,0,0,462.59,421.74Z"/><path class="cls-1" d="M73,528l38.51-13.56a8.55,8.55,0,0,1,9.6,3.4l-4.26,1.5c.27,1.59.59,3.23,1,4.89l-.63-1.8a3.37,3.37,0,0,0-.41-.81c0-.76,0-1.51,0-2.25l-3.11,1.1-.6.21-.6.21-.6.21-.39.13h0l-.06,0-.16.05-.6.21-.6.21-.6.21-.6.21-.6.21-.6.21-.6.21-.6.21-.37.13h0l-.21.07-.6.21-.6.21-.6.21-.6.21-.6.21-.6.21-.6.21-.6.21-.6.21-.6.21-.6.21-.6.21L98,526l-.6.21-.54.19L75.14,534c-1.28.45-1.13,4.9-1.12,6a52.68,52.68,0,0,0,11.63,33c.72.92,3.33,4.43,4.64,4l21.9-7.71h0l1.57-.55.47-.16,2.12-.75.42-.15.6-.21.6-.21.6-.21.6-.21.51-.18,2.12-.75h0l1.57-.56.6-.21.6-.21.56-.2,2.13-.75.32-.11.6-.21.6-.21,1.81-.64-.39-.69a3.2,3.2,0,0,0,.1-2.43l-2.2-6.24c1.49,3.08,3,6,4.61,8.6l3.33-1.17c-6-10.57-13.43-27.59-13.92-41.34a10,10,0,0,1,.4,1l.8,2.27a141.13,141.13,0,0,0,9.84,27.94l2.49,7.08c1.72,4.89-.42,10.14-4.76,11.67l-38.5,13.56c-4.34,1.53-7.88-2.07-11-6.11a59.78,59.78,0,0,1-13.13-37.3c0-5.11.42-10.14,4.76-11.67Z"/><g id="_468819096" data-name=" 468819096"><path id="_476642912" data-name=" 476642912" class="cls-1" d="M115,513.2,443.45,397.53a10,10,0,0,1,12.77,6.12h0a10,10,0,0,1-6.12,12.77L127.64,530a87.38,87.38,0,0,1-2.73-13.48l-2.65.93a110.53,110.53,0,0,0,3.2,13.32l-1.56.55a54.57,54.57,0,0,1-1.78-13.82l-5.27,1.86A109.8,109.8,0,0,0,120,532.51a10,10,0,0,1-1.64.14,53.19,53.19,0,0,1-1.6-13.29l-5.3,1.87a104.09,104.09,0,0,0,2.29,10.31,10.07,10.07,0,0,1-1.62-1,46.88,46.88,0,0,1-.73-9.24l-3.08,1.08A10,10,0,0,1,115,513.2Z"/><path id="_479943408" data-name=" 479943408" class="cls-1" d="M129.93,548.62l2-.69a115.09,115.09,0,0,0,6.31,12.22l2.39-.84c-2.32-4-4.49-8-6.44-12.18L456.2,433.72A10,10,0,0,1,469,439.84h0a10,10,0,0,1-6.12,12.77L134.4,568.27a10,10,0,0,1-10.93-2.93l1.67-.59c-1.28-2.27-2.62-4.83-3.94-7.57a10.1,10.1,0,0,1,1-2.88c1.63,3.48,3.36,6.76,5.11,9.7l3.34-1.18c-1.91-3.37-4-7.39-5.88-11.74a9.9,9.9,0,0,1,1.75-1.15,115.89,115.89,0,0,0,6.25,12.14l3.33-1.17a134.71,134.71,0,0,1-6.13-12.29Z"/></g><path class="cls-1" d="M90.66,521.77l39.47-13.9c0,18.85,7.84,37.1,19.39,55.07l-39.47,13.9C99.42,559.73,92.14,541.61,90.66,521.77Zm6.21,4.59c1.93,15.37,7.57,29.58,15.32,42.95l2-.72c-6.35-11.36-14.1-29.61-13.55-43.52,2.26,13.94,8.72,31,15.67,42.77l3.34-1.18c-6.35-11.31-14.14-29.59-13.65-43.54l-9.17,3.23Zm24.94,39.56,3.34-1.18c-6.34-11.25-14.16-29.51-13.75-43.5l-5.34,1.88c2.29,14,8.77,31.07,15.75,42.8Zm5.46-1.92,3.34-1.18c-6.32-11.18-14.19-29.43-13.84-43.47l-5.3,1.87C113.78,535.23,120.29,552.31,127.27,564Zm5.46-1.93,3.33-1.17c-6.31-11.11-14.2-29.36-13.94-43.44l-5.27,1.86C119.22,533.36,125.75,550.43,132.73,562.08Zm5.47-1.93,2.39-.84c-7.76-13.26-13.87-27.64-15.67-42.82l-2.65.93a135.2,135.2,0,0,0,15.94,42.73Z"/></g></g></svg>